<svg width="56" height="57" viewBox="0 0 56 57" fill="none" xmlns="http://www.w3.org/2000/svg">
<path d="M56 28.5C56 13.036 43.464 0.5 28 0.5C12.536 0.5 0 13.036 0 28.5C0 43.964 12.536 56.5 28 56.5C43.464 56.5 56 43.964 56 28.5Z" fill="#FFA200"/>
<path d="M36.556 37.475H19.346C19.1125 37.475 18.8865 37.3933 18.7069 37.2441C18.5274 37.0948 18.4057 36.8875 18.363 36.658L16.518 26.721C16.4913 26.5767 16.4967 26.4284 16.5337 26.2864C16.5708 26.1445 16.6386 26.0124 16.7325 25.8996C16.8263 25.7868 16.9437 25.696 17.0766 25.6337C17.2094 25.5714 17.3543 25.539 17.501 25.539H38.401C38.5477 25.539 38.6926 25.5714 38.8255 25.6337C38.9583 25.696 39.0758 25.7868 39.1696 25.8996C39.2634 26.0124 39.3312 26.1445 39.3683 26.2864C39.4053 26.4284 39.4107 26.5767 39.384 26.721L37.54 36.658C37.4973 36.8877 37.3755 37.0951 37.1957 37.2444C37.016 37.3936 36.7896 37.4752 36.556 37.475Z" stroke="white" stroke-width="2" stroke-miterlimit="10"/>
<path d="M21.624 26.036C21.624 22.752 24.5091 19 28.0681 19C31.6271 19 34.513 22.752 34.513 26.036" stroke="white" stroke-width="2" stroke-miterlimit="10"/>
<path d="M22.836 29.421V33.593" stroke="white" stroke-width="2" stroke-miterlimit="10" stroke-linecap="round"/>
<path d="M27.951 29.421V33.593" stroke="white" stroke-width="2" stroke-miterlimit="10" stroke-linecap="round"/>
<path d="M33.067 29.421V33.593" stroke="white" stroke-width="2" stroke-miterlimit="10" stroke-linecap="round"/>
</svg>
