<svg xmlns="http://www.w3.org/2000/svg" width="162" height="50" viewBox="0 0 162 50"><g transform="translate(-22 -9)"><text transform="translate(88 30)" fill="#fff" font-size="20" font-family="PTSans-Regular, PT Sans"><tspan x="0" y="0">Атмосфера</tspan><tspan x="0" y="23">комфорта</tspan></text><g transform="translate(16)"><circle cx="25" cy="25" r="25" transform="translate(6 9)" fill="#fff"/><g transform="translate(18.493 15)"><path d="M806.461,970.537a.127.127,0,0,0-.151-.125c-.634.134-.684,1.108-1.41,1.108-.78,0-.78-1.344-1.561-1.344s-.78,1.344-1.559,1.344c-.726,0-.776-.974-1.409-1.108a.127.127,0,0,0-.15.125v1.991a1.539,1.539,0,0,0,.409,1.045v0a1.539,1.539,0,0,1,.409,1.045v1.938a.126.126,0,0,1-.081.118,18.494,18.494,0,0,1-16.581-1.642.551.551,0,0,0-.654.884,19.851,19.851,0,0,0,20.5,3.126q.353-.15.7-.312a1.257,1.257,0,0,0,.721-1.139v-2.973a1.539,1.539,0,0,1,.409-1.045v0a1.542,1.542,0,0,0,.409-1.045Z" transform="translate(-783.524 -942.264)" fill="#e4831b"/><path d="M792.949,943.422h0a14.482,14.482,0,0,1-6.04,0h0a.125.125,0,0,1-.1-.123V941.49a1.538,1.538,0,0,1,.409-1.045l0,0a1.54,1.54,0,0,0,.409-1.045v-3.08a1.251,1.251,0,0,1,.715-1.135c.153-.071.306-.14.461-.209a19.847,19.847,0,0,1,20.741,3.019.552.552,0,0,1-.654.885,18.492,18.492,0,0,0-16.582-1.643.127.127,0,0,0-.081.118V939.4a1.54,1.54,0,0,0,.409,1.045l0,0a1.538,1.538,0,0,1,.409,1.045V943.3A.126.126,0,0,1,792.949,943.422Z" transform="translate(-784.204 -933.316)" fill="#135aff"/><path d="M809.454,946.784c3.847,6.528-.261,11.248-3.862,14.883a.126.126,0,0,1-.215-.086,7.918,7.918,0,0,0-4.935-7.028c-5.226-2.418-4.775-6.387-4.2-8.139,1.138-3.536,4.623-4.69,5.585-4.946a.125.125,0,0,1,.147.171,3.949,3.949,0,0,0,1.839,5.35,6.644,6.644,0,0,1,3.4,4.3.125.125,0,0,0,.223.043,9.581,9.581,0,0,0,1.792-4.5A.125.125,0,0,1,809.454,946.784Z" transform="translate(-786.086 -935.442)" fill="#f97807"/><g transform="translate(2.146 11.873)"><path d="M797,959.3c-3.94-1.926-5.522-4.509-6.114-6.421a9.388,9.388,0,0,1-.39-3.389.126.126,0,0,0-.22-.09,16.185,16.185,0,0,0-4.042,10.153c0,4.656,2.807,9.137,7.431,9.617a5.168,5.168,0,0,0,5.71-3.1A5.094,5.094,0,0,0,797,959.3Z" transform="translate(-786.23 -949.358)" fill="#135aff"/></g></g></g></g></svg>