<svg width="18" height="18" viewBox="0 0 18 18" fill="none" xmlns="http://www.w3.org/2000/svg">
<g clip-path="url(#clip0)">
<path d="M12.5 11H11.71L11.43 10.73C12.5266 9.45238 13.0855 7.79961 12.9895 6.11867C12.8934 4.43773 12.1499 2.85938 10.9149 1.715C9.67991 0.570614 8.04959 -0.0507963 6.36622 -0.0187636C4.68284 0.0132692 3.07735 0.696253 1.88681 1.88679C0.696268 3.07733 0.0132844 4.68283 -0.0187483 6.3662C-0.0507811 8.04958 0.570629 9.67989 1.71501 10.9149C2.8594 12.1498 4.43775 12.8934 6.11869 12.9895C7.79962 13.0855 9.4524 12.5266 10.73 11.43L11 11.71V12.5L16 17.49L17.49 16L12.5 11ZM6.50001 11C5.61 11 4.73997 10.7361 3.99995 10.2416C3.25993 9.74715 2.68315 9.04434 2.34256 8.22207C2.00196 7.39981 1.91285 6.49501 2.08648 5.62209C2.26011 4.74918 2.6887 3.94735 3.31803 3.31802C3.94737 2.68868 4.74919 2.2601 5.62211 2.08646C6.49502 1.91283 7.39982 2.00195 8.22209 2.34254C9.04436 2.68313 9.74716 3.25991 10.2416 3.99993C10.7361 4.73995 11 5.60998 11 6.5C11.0008 7.09117 10.8849 7.67669 10.6591 8.22301C10.4332 8.76933 10.1018 9.26572 9.68375 9.68374C9.26573 10.1018 8.76934 10.4332 8.22302 10.6591C7.6767 10.8849 7.09118 11.0008 6.50001 11V11Z" fill="#FFA200"/>
<path d="M9 7H7V9H6V7H4V6H6V4H7V6H9V7Z" fill="#FFA200"/>
</g>
<defs>
<clipPath id="clip0">
<rect width="17.49" height="17.49" fill="white"/>
</clipPath>
</defs>
</svg>
