<svg xmlns="http://www.w3.org/2000/svg" width="184" height="153" viewBox="0 0 184 153"><g transform="translate(-57.316 -43.753)"><path d="M130.762,109.753H240.316v87.224h-182V109.753" transform="translate(0 -4.037)" fill="#e2f2fc" stroke="#0076ce" stroke-linejoin="round" stroke-width="2" fill-rule="evenodd"/><rect width="70.68" height="33.764" transform="translate(73.335 90.709)" fill="#e2f2fc"/><rect width="72.447" height="40.329" stroke-width="2" fill="#e2f2fc" stroke="#0076ce" stroke-linejoin="round" transform="translate(58.316 53.194)"/><rect width="109.553" height="60.963" stroke-width="2" fill="#e2f2fc" stroke="#0076ce" stroke-linejoin="round" transform="translate(130.762 44.753)"/><rect width="74.214" height="55.335" stroke-width="2" fill="#e2f2fc" stroke="#0076ce" stroke-linejoin="round" transform="translate(130.762 105.715)"/><line y1="44.081" transform="translate(58.316 87.192)" fill="#fff" stroke="#0076ce" stroke-linejoin="round" stroke-width="2"/><rect width="28.272" height="5.627" stroke-width="2" fill="#e2f2fc" stroke="#0076ce" stroke-linejoin="round" transform="translate(144.015 190.125)"/><rect width="28.272" height="5.627" stroke-width="2" fill="#e2f2fc" stroke="#0076ce" stroke-linejoin="round" transform="translate(167.869 158.237)"/><rect width="26.505" height="5.627" stroke-width="2" fill="#e2f2fc" stroke="#0076ce" stroke-linejoin="round" transform="translate(209.393 102.902)"/><rect width="28.137" height="5.301" stroke-width="2" fill="#e2f2fc" stroke="#0076ce" stroke-linejoin="round" transform="translate(133.413 58.821) rotate(90)"/><rect width="27.388" height="55.335" stroke-width="2" fill="#e2f2fc" stroke="#0076ce" stroke-linejoin="round" transform="translate(130.762 105.715)"/><rect width="20.32" height="47.832" rx="9" stroke-width="2" fill="#e2f2fc" stroke="#0076ce" stroke-linejoin="round" transform="translate(134.296 109.467)"/><ellipse cx="5.522" cy="9.848" rx="5.522" ry="9.848" transform="translate(190.619 132.211)" fill="#e2f2fc" stroke="#0076ce" stroke-linejoin="round" stroke-width="2"/><rect width="20.32" height="99.416" stroke-width="2" fill="#e2f2fc" stroke="#0076ce" stroke-linejoin="round" transform="translate(58.316 93.523)"/><rect width="18.553" height="31.888" stroke-width="2" fill="#e2f2fc" stroke="#0076ce" stroke-linejoin="round" transform="translate(107.792 113.219)"/><rect width="15.019" height="21.571" stroke-width="2" fill="#e2f2fc" stroke="#0076ce" stroke-linejoin="round" transform="translate(60.966 126.349)"/><ellipse cx="4.859" cy="5.158" rx="4.859" ry="5.158" transform="translate(112.209 100.088)" fill="#e2f2fc" stroke="#0076ce" stroke-linejoin="round" stroke-width="2"/><ellipse cx="4.859" cy="5.158" rx="4.859" ry="5.158" transform="translate(134.296 91.647)" fill="#e2f2fc" stroke="#0076ce" stroke-linejoin="round" stroke-width="2"/><ellipse cx="4.859" cy="5.158" rx="4.859" ry="5.158" transform="translate(226.18 177.933)" fill="#e2f2fc" stroke="#0076ce" stroke-linejoin="round" stroke-width="2"/><ellipse cx="4.859" cy="5.158" rx="4.859" ry="5.158" transform="translate(112.209 147.92)" fill="#e2f2fc" stroke="#0076ce" stroke-linejoin="round" stroke-width="2"/><ellipse cx="4.859" cy="5.158" rx="4.859" ry="5.158" transform="translate(95.423 116.032)" fill="#e2f2fc" stroke="#0076ce" stroke-linejoin="round" stroke-width="2"/><ellipse cx="4.859" cy="5.158" rx="4.859" ry="5.158" transform="translate(95.423 131.976)" fill="#e2f2fc" stroke="#0076ce" stroke-linejoin="round" stroke-width="2"/><ellipse cx="6.626" cy="11.255" rx="6.626" ry="11.255" transform="translate(61.85 163.865)" fill="#e2f2fc" stroke="#0076ce" stroke-linejoin="round" stroke-width="2"/><ellipse cx="1.767" cy="1.876" rx="1.767" ry="1.876" transform="translate(63.617 130.101)" fill="#e2f2fc" stroke="#0076ce" stroke-linejoin="round" stroke-width="2"/><ellipse cx="1.767" cy="1.876" rx="1.767" ry="1.876" transform="translate(69.801 130.101)" fill="#e2f2fc" stroke="#0076ce" stroke-linejoin="round" stroke-width="2"/><ellipse cx="1.767" cy="1.876" rx="1.767" ry="1.876" transform="translate(63.617 140.417)" fill="#e2f2fc" stroke="#0076ce" stroke-linejoin="round" stroke-width="2"/><ellipse cx="1.767" cy="1.876" rx="1.767" ry="1.876" transform="translate(69.801 140.417)" fill="#e2f2fc" stroke="#0076ce" stroke-linejoin="round" stroke-width="2"/><rect width="8.441" height="53.01" stroke-width="2" fill="#e2f2fc" stroke="#0076ce" stroke-linejoin="round" transform="translate(121.486 53.663) rotate(90)"/><rect width="8.441" height="53.01" stroke-width="2" fill="#e2f2fc" stroke="#0076ce" stroke-linejoin="round" transform="translate(121.486 84.613) rotate(90)"/><rect width="4.689" height="21.204" stroke-width="2" fill="#e2f2fc" stroke="#0076ce" stroke-linejoin="round" transform="translate(133.855 187.58) rotate(90)"/><rect width="4.689" height="21.204" stroke-width="2" fill="#e2f2fc" stroke="#0076ce" stroke-linejoin="round" transform="translate(112.651 187.58) rotate(90)"/><rect width="51.243" height="47.832" stroke-width="2" fill="#e2f2fc" stroke="#0076ce" stroke-linejoin="round" transform="translate(161.685 44.753)"/><rect width="44.175" height="44.081" stroke-width="2" fill="#e2f2fc" stroke="#0076ce" stroke-linejoin="round" transform="translate(165.219 44.753)"/><rect width="16.786" height="10.317" stroke-width="2" fill="#e2f2fc" stroke="#0076ce" stroke-linejoin="round" transform="translate(168.753 47.566)"/><rect width="16.786" height="10.317" stroke-width="2" fill="#e2f2fc" stroke="#0076ce" stroke-linejoin="round" transform="translate(189.073 47.566)"/><line x2="44.175" transform="translate(165.219 61.635)" fill="#fff" stroke="#0076ce" stroke-linejoin="round" stroke-width="2"/><path d="M9.562-.286c5.281-.158,9.486,2.263,9.392,5.406S14.5,10.94,9.222,11.1-.264,8.835-.17,5.692,4.281-.128,9.562-.286Z" transform="translate(180.298 123.271) rotate(-45)" fill="#e2f2fc" stroke="#0076ce" stroke-width="2"/><path d="M0,0,6.375-.19,5.94,14.381l-6.375.19Z" transform="translate(188.107 112.66) rotate(-45)" fill="#e2f2fc" stroke="#0076ce" stroke-width="2"/><rect width="14.136" height="15.006" stroke-width="2" fill="#e2f2fc" stroke="#0076ce" stroke-linejoin="round" transform="translate(144.015 44.753)"/><rect width="14.136" height="15.006" stroke-width="2" fill="#e2f2fc" stroke="#0076ce" stroke-linejoin="round" transform="translate(216.461 44.753)"/></g></svg>