<svg xmlns="http://www.w3.org/2000/svg" width="197.43" height="187.638" viewBox="0 0 197.43 187.638"><g transform="translate(-42.316 -29.06)"><path d="M61.316,87.239V201.654H228.545V85.332l-83.615-49.58Z" transform="translate(-2.797 -0.257)" fill="#e2f2fc" stroke="#0076ce" stroke-linejoin="round" stroke-width="2" fill-rule="evenodd"/><path d="M142.988,30.462l-.4-.236-95.578,57.2-.746.447,3.165,6.738,93.158-55.753L235,94.165l.746.446,3.165-6.738Z" transform="translate(-0.459)" fill="#e2f2fc" stroke="#0076ce" stroke-miterlimit="10" stroke-width="2"/><g transform="translate(81.322 83.168)"><rect width="52.365" height="3.814" stroke-width="2" fill="#e2f2fc" stroke="#0076ce" stroke-linejoin="round" transform="translate(0 38.138)"/><rect width="30.511" height="4.223" stroke-width="2" fill="#e2f2fc" stroke="#0076ce" stroke-linejoin="round" transform="translate(24.493 34.324) rotate(-90)"/><rect width="43.074" height="3.814" stroke-width="2" fill="#e2f2fc" stroke="#0076ce" stroke-linejoin="round" transform="translate(48.142 3.814) rotate(180)"/><rect width="42.23" height="3.814" stroke-width="2" fill="#e2f2fc" stroke="#0076ce" stroke-linejoin="round" transform="translate(47.297 38.138) rotate(180)"/><rect width="38.138" height="3.378" stroke-width="2" fill="#e2f2fc" stroke="#0076ce" stroke-linejoin="round" transform="translate(5.068 38.138) rotate(-90)"/><rect width="38.138" height="3.394" stroke-width="2" fill="#e2f2fc" stroke="#0076ce" stroke-linejoin="round" transform="translate(44.748 38.138) rotate(-90)"/></g><g transform="translate(81.322 145.142)"><rect width="52.365" height="3.814" stroke-width="2" fill="#e2f2fc" stroke="#0076ce" stroke-linejoin="round" transform="translate(0 38.138)"/><rect width="30.511" height="4.223" stroke-width="2" fill="#e2f2fc" stroke="#0076ce" stroke-linejoin="round" transform="translate(24.493 34.324) rotate(-90)"/><rect width="43.074" height="3.814" stroke-width="2" fill="#e2f2fc" stroke="#0076ce" stroke-linejoin="round" transform="translate(48.142 3.814) rotate(180)"/><rect width="42.23" height="3.814" stroke-width="2" fill="#e2f2fc" stroke="#0076ce" stroke-linejoin="round" transform="translate(47.297 38.138) rotate(180)"/><rect width="38.138" height="3.378" stroke-width="2" fill="#e2f2fc" stroke="#0076ce" stroke-linejoin="round" transform="translate(5.068 38.138) rotate(-90)"/><rect width="38.138" height="3.394" stroke-width="2" fill="#e2f2fc" stroke="#0076ce" stroke-linejoin="round" transform="translate(44.748 38.138) rotate(-90)"/></g><g transform="translate(148.89 83.168)"><rect width="52.365" height="3.814" stroke-width="2" fill="#e2f2fc" stroke="#0076ce" stroke-linejoin="round" transform="translate(0 38.138)"/><rect width="30.511" height="4.223" stroke-width="2" fill="#e2f2fc" stroke="#0076ce" stroke-linejoin="round" transform="translate(24.493 34.324) rotate(-90)"/><rect width="43.074" height="3.814" stroke-width="2" fill="#e2f2fc" stroke="#0076ce" stroke-linejoin="round" transform="translate(48.142 3.814) rotate(180)"/><rect width="42.23" height="3.814" stroke-width="2" fill="#e2f2fc" stroke="#0076ce" stroke-linejoin="round" transform="translate(47.297 38.138) rotate(180)"/><rect width="38.138" height="3.378" stroke-width="2" fill="#e2f2fc" stroke="#0076ce" stroke-linejoin="round" transform="translate(5.068 38.138) rotate(-90)"/><rect width="38.138" height="3.394" stroke-width="2" fill="#e2f2fc" stroke="#0076ce" stroke-linejoin="round" transform="translate(44.748 38.138) rotate(-90)"/></g><rect width="178.209" height="14.302" stroke-width="2" fill="#e2f2fc" stroke="#0076ce" stroke-linejoin="round" transform="translate(52.606 201.396)"/><path d="M220.37,224.054H166.316v-14.3H220.37Z" transform="translate(-19.115 -8.356)" fill="#e2f2fc" stroke="#0076ce" stroke-linejoin="round" stroke-width="2" fill-rule="evenodd"/><rect width="42.23" height="3.814" stroke-width="2" fill="#e2f2fc" stroke="#0076ce" stroke-linejoin="round" transform="translate(153.113 135.608)"/><rect width="61.974" height="4.223" stroke-width="2" fill="#e2f2fc" stroke="#0076ce" stroke-linejoin="round" transform="translate(191.12 201.396) rotate(-90)"/><rect width="61.974" height="4.223" stroke-width="2" fill="#e2f2fc" stroke="#0076ce" stroke-linejoin="round" transform="translate(153.113 201.396) rotate(-90)"/><line y2="61.974" transform="translate(174.228 139.422)" fill="#fff" stroke="#0076ce" stroke-linejoin="round" stroke-width="2"/><line x2="34.628" transform="translate(157.336 158.491)" fill="#fff" stroke="#0076ce" stroke-linejoin="round" stroke-width="2"/><rect width="10.135" height="35.278" stroke-width="2" fill="#e2f2fc" stroke="#0076ce" stroke-linejoin="round" transform="translate(160.714 162.305)"/><rect width="10.135" height="35.278" stroke-width="2" fill="#e2f2fc" stroke="#0076ce" stroke-linejoin="round" transform="translate(177.606 162.305)"/><rect width="10.135" height="11.441" stroke-width="2" fill="#e2f2fc" stroke="#0076ce" stroke-linejoin="round" transform="translate(177.606 143.236)"/><rect width="10.135" height="11.441" stroke-width="2" fill="#e2f2fc" stroke="#0076ce" stroke-linejoin="round" transform="translate(160.714 143.236)"/><path d="M166.316,214.086" transform="translate(-19.115 -8.558)" fill="#e2f2fc" stroke="#0076ce" stroke-linejoin="round" stroke-width="2" fill-rule="evenodd"/><line x2="54.054" transform="translate(147.201 206.164)" fill="#fff" stroke="#0076ce" stroke-linejoin="round" stroke-width="2"/><line x2="54.054" transform="translate(147.201 210.931)" fill="#fff" stroke="#0076ce" stroke-linejoin="round" stroke-width="2"/><g transform="translate(163.248 170.886)"><rect width="5.068" height="9.535" stroke-width="2" fill="#e2f2fc" stroke="#0076ce" stroke-linejoin="round" transform="translate(5.068 9.535) rotate(180)"/><rect width="10.98" height="3.814" stroke-width="2" fill="#e2f2fc" stroke="#0076ce" stroke-linejoin="round" transform="translate(0 2.86)"/></g><path d="M53.228,101.753v92.485H47.316v6.674H59.14V101.753Z" transform="translate(-4 -3.329)" fill="#e2f2fc" stroke="#0076ce" stroke-linejoin="round" stroke-width="2" fill-rule="evenodd"/><line x1="11.442" transform="translate(47.077 181.374)" fill="#fff" stroke="#0076ce" stroke-linejoin="round" stroke-width="2"/><line x1="11.442" transform="translate(47.077 121.306)" fill="#fff" stroke="#0076ce" stroke-linejoin="round" stroke-width="2"/><path d="M61.316,91.753" transform="translate(-2.797 -2.864)" fill="#e2f2fc" stroke="#0076ce" stroke-linejoin="round" stroke-width="2" fill-rule="evenodd"/></g></svg>