<svg width="56" height="57" fill="none" xmlns="http://www.w3.org/2000/svg"><path d="M56 28.5c0-15.464-12.536-28-28-28S0 13.036 0 28.5s12.536 28 28 28 28-12.536 28-28z" fill="#FFA200"/><path d="M36.556 37.475h-17.21a1 1 0 01-.983-.817l-1.845-9.937a1.001 1.001 0 01.983-1.182h20.9a1 1 0 01.983 1.182l-1.844 9.937a1 1 0 01-.984.817z" stroke="#fff" stroke-width="2" stroke-miterlimit="10"/><path d="M21.624 26.036c0-3.284 2.885-7.036 6.444-7.036 3.56 0 6.445 3.752 6.445 7.036" stroke="#fff" stroke-width="2" stroke-miterlimit="10"/><path d="M22.836 29.421v4.172m5.115-4.172v4.172m5.116-4.172v4.172" stroke="#fff" stroke-width="2" stroke-miterlimit="10" stroke-linecap="round"/></svg>