<svg xmlns="http://www.w3.org/2000/svg" width="162" height="50"><text transform="translate(66 21)" fill="#fff" font-size="20" font-family="PTSans-Regular, PT Sans"><tspan x="0" y="0">Атмосфера</tspan><tspan x="0" y="23">комфорта</tspan></text><g transform="translate(-6 -9)"><circle cx="25" cy="25" r="25" transform="translate(6 9)" fill="#fff"/><path d="M41.43 43.273a.127.127 0 00-.151-.125c-.634.134-.684 1.108-1.41 1.108-.78 0-.78-1.344-1.561-1.344s-.78 1.344-1.559 1.344c-.726 0-.776-.974-1.409-1.108a.127.127 0 00-.15.125v1.991a1.539 1.539 0 00.409 1.045 1.539 1.539 0 01.409 1.045v1.938a.126.126 0 01-.081.118 18.494 18.494 0 01-16.581-1.642.551.551 0 00-.654.884 19.851 19.851 0 0020.5 3.126q.353-.15.7-.312a1.257 1.257 0 00.721-1.139v-2.973a1.539 1.539 0 01.409-1.045 1.542 1.542 0 00.409-1.045z" fill="#e4831b"/><path d="M27.238 25.106a14.482 14.482 0 01-6.04 0 .125.125 0 01-.1-.123v-1.809a1.538 1.538 0 01.409-1.045 1.54 1.54 0 00.409-1.045v-3.08a1.251 1.251 0 01.715-1.135c.153-.071.306-.14.461-.209a19.847 19.847 0 0120.741 3.019.552.552 0 01-.654.885 18.492 18.492 0 00-16.582-1.643.127.127 0 00-.081.118v2.045a1.54 1.54 0 00.409 1.045 1.538 1.538 0 01.409 1.045v1.81a.126.126 0 01-.096.122z" fill="#135aff"/><path d="M41.861 26.342c3.847 6.528-.261 11.248-3.862 14.883a.126.126 0 01-.215-.086 7.918 7.918 0 00-4.935-7.028c-5.226-2.418-4.775-6.387-4.2-8.139 1.138-3.536 4.623-4.69 5.585-4.946a.125.125 0 01.147.171 3.949 3.949 0 001.839 5.35 6.644 6.644 0 013.4 4.3.125.125 0 00.223.043 9.581 9.581 0 001.792-4.5.125.125 0 01.226-.048z" fill="#f97807"/><path d="M31.409 36.815c-3.94-1.926-5.522-4.509-6.114-6.421a9.388 9.388 0 01-.39-3.389.126.126 0 00-.22-.09 16.185 16.185 0 00-4.042 10.153c0 4.656 2.807 9.137 7.431 9.617a5.168 5.168 0 005.71-3.1 5.094 5.094 0 00-2.375-6.77z" fill="#135aff"/></g></svg>