<svg xmlns="http://www.w3.org/2000/svg" width="197.43" height="187.638"><g stroke="#0076ce" stroke-width="2"><path d="M16.203 57.922v114.415h167.229V56.015L99.817 6.435z" fill="#e2f2fc" stroke-linejoin="round" fill-rule="evenodd"/><path d="M100.213 1.402l-.4-.236-95.578 57.2-.746.447 3.165 6.738L99.812 9.798l92.413 55.307.746.446 3.165-6.738z" fill="#e2f2fc" stroke-miterlimit="10"/><g fill="#e2f2fc" stroke-linejoin="round"><path d="M39.006 92.246h52.365v3.814H39.006zm24.493-3.814V57.921h4.223v30.511z"/><path d="M87.148 57.922H44.074v-3.814h43.074zm-.845 34.324h-42.23v-3.814h42.23z"/><path d="M44.074 92.246V54.108h3.378v38.138zm39.68 0V54.108h3.394v38.138z"/></g><g fill="#e2f2fc" stroke-linejoin="round"><path d="M39.006 154.22h52.365v3.814H39.006zm24.493-3.814v-30.511h4.223v30.511z"/><path d="M87.148 119.896H44.074v-3.814h43.074zm-.845 34.324h-42.23v-3.814h42.23z"/><path d="M44.074 154.22v-38.138h3.378v38.138zm39.68 0v-38.138h3.394v38.138z"/></g><g fill="#e2f2fc" stroke-linejoin="round"><path d="M106.574 92.246h52.365v3.814h-52.365zm24.493-3.814V57.921h4.223v30.511z"/><path d="M154.716 57.922h-43.074v-3.814h43.074zm-.845 34.324h-42.23v-3.814h42.23z"/><path d="M111.642 92.246V54.108h3.378v38.138zm39.68 0V54.108h3.394v38.138z"/></g><path fill="#e2f2fc" stroke-linejoin="round" d="M10.29 172.336h178.209v14.302H10.29z"/><path d="M158.939 186.638h-54.054v-14.3h54.054z" fill="#e2f2fc" stroke-linejoin="round" fill-rule="evenodd"/><path fill="#e2f2fc" stroke-linejoin="round" d="M110.797 106.548h42.23v3.814h-42.23zm38.007 65.788v-61.974h4.223v61.974zm-38.007 0v-61.974h4.223v61.974z"/><path fill="#fff" stroke-linejoin="round" d="M131.912 110.362v61.974m-16.892-42.905h34.628"/><path fill="#e2f2fc" stroke-linejoin="round" d="M118.398 133.245h10.135v35.278h-10.135zm16.892 0h10.135v35.278H135.29zm0-19.069h10.135v11.441H135.29zm-16.892 0h10.135v11.441h-10.135z"/><path fill="#fff" stroke-linejoin="round" d="M104.885 177.104h54.054m-54.054 4.767h54.054"/><g fill="#e2f2fc" stroke-linejoin="round"><path d="M126 151.361h-5.068v-9.535H126z"/><path d="M120.932 144.686h10.98v3.814h-10.98z"/></g><path d="M6.912 69.364v92.485H1v6.674h11.824V69.364z" fill="#e2f2fc" stroke-linejoin="round" fill-rule="evenodd"/><path fill="#fff" stroke-linejoin="round" d="M16.203 152.314H4.761m11.442-60.068H4.761"/></g></svg>