<svg xmlns="http://www.w3.org/2000/svg" width="184" height="153"><g transform="translate(-57.316 -43.753)"><path d="M130.762 105.716h109.554v87.224h-182v-87.224" fill="#e2f2fc" stroke="#0076ce" stroke-linejoin="round" stroke-width="2" fill-rule="evenodd"/><path fill="#e2f2fc" d="M73.335 90.709h70.68v33.764h-70.68z"/><path stroke-width="2" fill="#e2f2fc" stroke="#0076ce" stroke-linejoin="round" d="M58.316 53.194h72.447v40.329H58.316z"/><path stroke-width="2" fill="#e2f2fc" stroke="#0076ce" stroke-linejoin="round" d="M130.762 44.753h109.553v60.963H130.762z"/><path stroke-width="2" fill="#e2f2fc" stroke="#0076ce" stroke-linejoin="round" d="M130.762 105.715h74.214v55.335h-74.214z"/><path fill="#fff" stroke="#0076ce" stroke-linejoin="round" stroke-width="2" d="M58.316 131.273V87.192"/><path stroke-width="2" fill="#e2f2fc" stroke="#0076ce" stroke-linejoin="round" d="M144.015 190.125h28.272v5.627h-28.272zm23.854-31.888h28.272v5.627h-28.272zm41.524-55.335h26.505v5.627h-26.505zm-75.98-44.081v28.137h-5.301V58.821zm-2.651 46.894h27.388v55.335h-27.388z"/><rect width="20.32" height="47.832" rx="9" stroke-width="2" fill="#e2f2fc" stroke="#0076ce" stroke-linejoin="round" transform="translate(134.296 109.467)"/><ellipse cx="5.522" cy="9.848" rx="5.522" ry="9.848" transform="translate(190.619 132.211)" fill="#e2f2fc" stroke="#0076ce" stroke-linejoin="round" stroke-width="2"/><path stroke-width="2" fill="#e2f2fc" stroke="#0076ce" stroke-linejoin="round" d="M58.316 93.523h20.32v99.416h-20.32zm49.476 19.696h18.553v31.888h-18.553z"/><path stroke-width="2" fill="#e2f2fc" stroke="#0076ce" stroke-linejoin="round" d="M60.966 126.349h15.019v21.571H60.966z"/><ellipse cx="4.859" cy="5.158" rx="4.859" ry="5.158" transform="translate(112.209 100.088)" fill="#e2f2fc" stroke="#0076ce" stroke-linejoin="round" stroke-width="2"/><ellipse cx="4.859" cy="5.158" rx="4.859" ry="5.158" transform="translate(134.296 91.647)" fill="#e2f2fc" stroke="#0076ce" stroke-linejoin="round" stroke-width="2"/><ellipse cx="4.859" cy="5.158" rx="4.859" ry="5.158" transform="translate(226.18 177.933)" fill="#e2f2fc" stroke="#0076ce" stroke-linejoin="round" stroke-width="2"/><ellipse cx="4.859" cy="5.158" rx="4.859" ry="5.158" transform="translate(112.209 147.92)" fill="#e2f2fc" stroke="#0076ce" stroke-linejoin="round" stroke-width="2"/><ellipse cx="4.859" cy="5.158" rx="4.859" ry="5.158" transform="translate(95.423 116.032)" fill="#e2f2fc" stroke="#0076ce" stroke-linejoin="round" stroke-width="2"/><ellipse cx="4.859" cy="5.158" rx="4.859" ry="5.158" transform="translate(95.423 131.976)" fill="#e2f2fc" stroke="#0076ce" stroke-linejoin="round" stroke-width="2"/><ellipse cx="6.626" cy="11.255" rx="6.626" ry="11.255" transform="translate(61.85 163.865)" fill="#e2f2fc" stroke="#0076ce" stroke-linejoin="round" stroke-width="2"/><ellipse cx="1.767" cy="1.876" rx="1.767" ry="1.876" transform="translate(63.617 130.101)" fill="#e2f2fc" stroke="#0076ce" stroke-linejoin="round" stroke-width="2"/><ellipse cx="1.767" cy="1.876" rx="1.767" ry="1.876" transform="translate(69.801 130.101)" fill="#e2f2fc" stroke="#0076ce" stroke-linejoin="round" stroke-width="2"/><ellipse cx="1.767" cy="1.876" rx="1.767" ry="1.876" transform="translate(63.617 140.417)" fill="#e2f2fc" stroke="#0076ce" stroke-linejoin="round" stroke-width="2"/><ellipse cx="1.767" cy="1.876" rx="1.767" ry="1.876" transform="translate(69.801 140.417)" fill="#e2f2fc" stroke="#0076ce" stroke-linejoin="round" stroke-width="2"/><path stroke-width="2" fill="#e2f2fc" stroke="#0076ce" stroke-linejoin="round" d="M121.486 53.663v8.441h-53.01v-8.441zm0 30.95v8.441h-53.01v-8.441zm12.369 102.967v4.689h-21.204v-4.689zm-21.204 0v4.689H91.447v-4.689zm49.034-142.827h51.243v47.832h-51.243z"/><path stroke-width="2" fill="#e2f2fc" stroke="#0076ce" stroke-linejoin="round" d="M165.219 44.753h44.175v44.081h-44.175z"/><path stroke-width="2" fill="#e2f2fc" stroke="#0076ce" stroke-linejoin="round" d="M168.753 47.566h16.786v10.317h-16.786zm20.32 0h16.786v10.317h-16.786z"/><path fill="#fff" stroke="#0076ce" stroke-linejoin="round" stroke-width="2" d="M165.219 61.635h44.175"/><path d="M186.857 116.307c3.623-3.846 8.308-5.107 10.464-2.818s.966 7.265-2.653 11.11-8.31 5.106-10.465 2.817-.968-7.263 2.654-11.109z" fill="#e2f2fc" stroke="#0076ce" stroke-width="2"/><path d="M188.107 112.66l4.373-4.642 9.996 10.61-4.373 4.643z" fill="#e2f2fc" stroke="#0076ce" stroke-width="2"/><path stroke-width="2" fill="#e2f2fc" stroke="#0076ce" stroke-linejoin="round" d="M144.015 44.753h14.136v15.006h-14.136zm72.446 0h14.136v15.006h-14.136z"/></g></svg>